<svg width="96" height="96" viewBox="0 0 96 96" fill="none" xmlns="http://www.w3.org/2000/svg">
<path d="M74 96H22V85H11L11 74H0L0 22H11V11H22L22 0H74V11H85V22H96V74H85V85H74V96Z" fill="#D63639"/>
<path d="M74 74V85H22V74H11L11 22H22L22 11H74V22H85V74H74Z" fill="#FD4545"/>
<path d="M66.2703 66.2703V74H29.7297V66.2703H22L22 29.7297H29.7297V22H66.2703V29.7297H74V66.2703H66.2703Z" fill="#FF5757"/>
<path d="M63 46H61.3649H53.6351H52V44.3649V36.6351V35H53.6351H61.3649H63V36.6351V44.3649V46Z" fill="#FFEFEF" fill-opacity="0.53"/>
</svg>
