<svg width="172" height="172" viewBox="0 0 172 172" fill="none" xmlns="http://www.w3.org/2000/svg">
<path d="M163.83 65.5213H172V73.6913H163.83L163.83 81.8613H155.606L155.606 90.085H139.213L139.212 98.255H131.043V114.649H139.212L139.213 131.043H147.436V147.436H155.606V163.776H147.436V172H131.043V163.776L122.873 163.776V155.606H106.479V147.436H98.3088V139.213L90.085 139.212V131.043H81.915L81.915 139.212H73.6913V147.436H65.5213V155.606H49.1275L49.1275 163.776H40.9575V172H24.5638V163.776H16.3938V147.436H24.5638V131.043H32.7875V114.649H40.9575V98.255H32.7875V90.085H16.3938V81.8613H8.17V73.6913H0V65.5213H8.17V57.2975H57.3512V40.9575H65.5213V24.5638H73.6913V8.17H81.915V0H90.085L90.085 8.17H98.3087L98.3088 24.5638H106.479V40.9575H114.649L114.649 57.2975H163.83L163.83 65.5213Z" fill="#E8D462"/>
<path d="M98.3088 90.0849H106.479V98.2549H98.3088V90.0849Z" fill="#231D24"/>
<path d="M90.085 73.6907H98.3088V81.8607H90.085V73.6907Z" fill="#231D24"/>
<path d="M73.6913 98.2549L98.3088 98.2549L98.3088 106.479H73.6913V98.2549Z" fill="#231D24"/>
<path d="M73.6913 73.6907H81.9151V81.8607H73.6913V73.6907Z" fill="#231D24"/>
<path d="M65.5213 90.0849H73.6913L73.6913 98.2549L65.5213 98.2549V90.0849Z" fill="#231D24"/>
</svg>
