<svg width="189" height="189" viewBox="0 0 189 189" fill="none" xmlns="http://www.w3.org/2000/svg">
<path d="M180.023 0H125.98V9.03656H117.003V63.0197H8.9775V71.9972H117.003V99.0478H125.98V135.017H8.9775V71.9972H0V153.031H8.9775V144.053H125.98V153.031H135.017V108.025H180.023V99.0478H189V9.03656H180.023V0ZM143.994 9.03656H162.008V18.0141H143.994V9.03656ZM180.023 90.0113H125.98V18.0141H135.017V27.0506H170.986V18.0141H180.023V90.0113Z" fill="#547EFF"/>
<path d="M162.008 54.0417H170.986V63.0192H162.008V54.0417Z" fill="#547EFF"/>
<path d="M162.008 36.0285H170.986V45.006H162.008V36.0285Z" fill="#547EFF"/>
<path d="M143.994 63.0197L162.008 63.0192L162.008 71.9972H143.994V63.0197Z" fill="#547EFF"/>
<path d="M135.017 54.0417H143.995L143.994 63.0197L135.017 63.0192V54.0417Z" fill="#547EFF"/>
<path d="M135.017 36.0285H143.995V45.006H135.017V36.0285Z" fill="#547EFF"/>
<path d="M8.9775 153.031L8.97755 162.008H45.0057V171.045H53.9832V162.008H80.9747V171.045H90.0113V162.008H125.98L125.98 153.031H8.9775Z" fill="#547EFF"/>
<path d="M108.025 99.0477L117.003 99.0478L117.003 108.025H108.025V99.0477Z" fill="#547EFF"/>
<path d="M98.9887 108.025L108.025 108.025L108.025 117.003H98.9887V108.025Z" fill="#547EFF"/>
<path d="M98.9887 90.0115H108.025L108.025 99.0477L98.9887 99.048V90.0115Z" fill="#547EFF"/>
<path d="M90.0113 117.003L98.9887 117.003L98.9888 126.039H90.0113V117.003Z" fill="#547EFF"/>
<path d="M90.0113 81.0334H98.9888L98.9887 90.0115L90.0113 90.0109V81.0334Z" fill="#547EFF"/>
<path d="M45.0057 180.022L45.0057 171.045L36.0282 171.045V189H98.9888V171.045L90.0113 171.045L90.0113 180.022H45.0057Z" fill="#547EFF"/>
<path d="M71.9972 81.0334H80.9747V99.0475H71.9972V81.0334Z" fill="#547EFF"/>
<path d="M63.0197 99.0477L71.9972 99.0475L71.9972 108.025H63.0197V99.0477Z" fill="#547EFF"/>
<path d="M53.9831 108.025L63.0197 108.025L63.0197 126.039H53.9831V108.025Z" fill="#547EFF"/>
<path d="M36.0282 117.003H45.0057V126.039H36.0282V117.003Z" fill="#547EFF"/>
<path d="M36.0282 81.0334H45.0057V90.0109H36.0282V81.0334Z" fill="#547EFF"/>
<path d="M26.9916 108.025H36.0282L36.0282 117.003L26.9916 117.003V108.025Z" fill="#547EFF"/>
<path d="M26.9916 90.0115L36.0282 90.0109L36.0282 99.048H26.9916V90.0115Z" fill="#547EFF"/>
<path d="M18.0141 99.0477L26.9916 99.048V108.025L18.0141 108.025V99.0477Z" fill="#547EFF"/>
</svg>
