<svg width="36" height="36" viewBox="0 0 36 36" fill="none" xmlns="http://www.w3.org/2000/svg">
<g clip-path="url(#clip0_611_2288)">
<path d="M34.2788 10.2825H32.5687V6.85125H30.8475V5.14125H29.1375V3.43125H25.7063V1.71H22.2863V0H13.7137V1.71H10.2825V3.43125H6.85125V5.14125H5.14125V6.85125H3.42V10.2825H1.71V13.7137H0V22.2863H1.71V25.7175H3.42V29.1375H5.14125V30.8588H6.85125V32.5687H10.2825V34.29H13.7137V36H22.2863V34.29H25.7063V32.5687H29.1375V30.8588H30.8475V29.1375H32.5687V25.7175H34.2788V22.2863H36V13.7137H34.2788V10.2825ZM32.5687 23.9963H30.8475V25.7175H29.1375V27.4275H27.4275V29.1375H20.565V27.4275H25.7063V23.9963H10.2825V27.4275H15.4238V29.1375H8.56125V27.4275H6.85125V25.7175H5.14125V23.9963H3.42V15.4238H5.14125V12.0037H6.85125V10.2825H8.56125V8.5725H15.4238V10.2825H20.565V8.5725H27.4275V10.2825H29.1375V12.0037H30.8475V15.4238H32.5687V23.9963Z" fill="#F2ECF4"/>
<path d="M20.565 15.4238H23.9963V18.855H20.565V15.4238Z" fill="#F2ECF4"/>
<path d="M11.9925 15.4238H15.4237V18.855H11.9925V15.4238Z" fill="#F2ECF4"/>
</g>
<defs>
<clipPath id="clip0_611_2288">
<rect width="36" height="36" fill="white"/>
</clipPath>
</defs>
</svg>
