<svg width="36" height="36" viewBox="0 0 36 36" fill="none" xmlns="http://www.w3.org/2000/svg">
<g clip-path="url(#clip0_611_2275)">
<path d="M34.2787 3.43127H36V32.5688H34.2787V3.43127Z" fill="#F2ECF4"/>
<path d="M32.5688 32.5687H34.2788V34.29H32.5688V32.5687Z" fill="#F2ECF4"/>
<path d="M32.5688 1.71002H34.2788V3.43127H32.5688V1.71002Z" fill="#F2ECF4"/>
<path d="M3.42 34.29H32.5687V36H3.42V34.29Z" fill="#F2ECF4"/>
<path d="M30.8475 5.14127H29.1375V3.43127H6.85125V5.14127H5.14125V6.85127H3.42V29.1375H5.14125V30.8588H6.85125V32.5688H29.1375V30.8588H30.8475V29.1375H32.5687V6.85127H30.8475V5.14127ZM29.1375 27.4275H27.4275V29.1375H8.56125V27.4275H6.85125V8.57252H8.56125V6.85127H27.4275V8.57252H29.1375V27.4275Z" fill="#F2ECF4"/>
<path d="M23.9962 8.57251H27.4275V12.0038H23.9962V8.57251Z" fill="#F2ECF4"/>
<path d="M23.9963 13.7137H22.2863V12.0037H13.7138V13.7137H11.9925V15.4237H10.2825V23.9962H11.9925V25.7175H13.7138V27.4275H22.2863V25.7175H23.9963V23.9962H25.7063V15.4237H23.9963V13.7137ZM22.2863 22.2862H20.565V23.9962H15.4238V22.2862H13.7138V17.145H15.4238V15.4237H20.565V17.145H22.2863V22.2862Z" fill="#F2ECF4"/>
<path d="M3.42 0H32.5687V1.71H3.42V0Z" fill="#F2ECF4"/>
<path d="M1.71001 32.5687H3.42001V34.29H1.71001V32.5687Z" fill="#F2ECF4"/>
<path d="M1.71001 1.71002H3.42001V3.43127H1.71001V1.71002Z" fill="#F2ECF4"/>
<path d="M0 3.43127H1.71V32.5688H0V3.43127Z" fill="#F2ECF4"/>
</g>
<defs>
<clipPath id="clip0_611_2275">
<rect width="36" height="36" fill="white"/>
</clipPath>
</defs>
</svg>
