<svg width="192" height="192" viewBox="0 0 192 192" fill="none" xmlns="http://www.w3.org/2000/svg">
<path d="M56 96H128V88H136V8H128V0H56V8H48V56H8V64H0V136H8V144H40V112H48V104H56V96Z" fill="#2C6494"/>
<path d="M128 95.9999V104H56V112H48V184H56V192H128V184H136V144H184V136H192V63.9999H184V55.9999H144V87.9999H136V95.9999H128Z" fill="#F2D24E"/>
<path d="M104 168H112V176H104V168Z" fill="white"/>
<path d="M96 144H136V152H96V144Z" fill="#E3A433"/>
<path d="M48 48H88V56H48V48Z" fill="#304399"/>
<path d="M72 16.0001H80V24.0001H72V16.0001Z" fill="white"/>
</svg>
