<svg width="96" height="96" viewBox="0 0 96 96" fill="none" xmlns="http://www.w3.org/2000/svg">
<path d="M74 96H22V85H11L11 74H0L0 22H11V11H22L22 0H74V11H85V22H96V74H85V85H74V96Z" fill="#E85DBC"/>
<path d="M74 74V85H22V74H11L11 22H22L22 11H74V22H85V74H74Z" fill="#FD68CE"/>
<path d="M37.5455 70.8182V64.2727H31V31.5455H37.5455V25H58.2727V31.5455H64.8182V46.8182H58.2727V49H64.8182V64.2727H58.2727V70.8182H37.5455ZM40.8182 61H56.0909V52.2727H44.0909V43.5455H56.0909V34.8182H40.8182V61Z" fill="#201522" fill-opacity="0.4"/>
</svg>
