<svg width="192" height="174" viewBox="0 0 192 174" fill="none" xmlns="http://www.w3.org/2000/svg">
<path d="M182.88 100.559H192V109.739H182.88V100.559Z" fill="#FD68CE"/>
<path d="M164.58 91.4397H182.88L182.88 100.559L164.58 100.56V91.4397Z" fill="#FD68CE"/>
<path d="M164.58 73.1402H173.7V82.3202H164.58V73.1402Z" fill="#FD68CE"/>
<path d="M137.16 82.3199V64.0199H128.04V54.8399H118.86V36.6H128.04V27.42H164.58V36.6H173.7L173.7 73.1402L182.88 73.1399V18.3H173.7V9.11999H164.58V0H128.04V9.11999H118.86V18.3H109.74V45.72H82.32V18.3H73.14V9.11999H64.02V0H27.42V9.11999H18.3V18.3H9.17998V73.1399H18.3V36.6H27.42V27.42H64.02V36.6H73.14V54.8399H64.02V64.0199H54.9V82.3199H27.42V91.4399H54.9V127.98H64.02V82.3199H73.14V73.1399H118.86V82.3199H128.04V127.98H137.16V91.4399L164.58 91.4397V82.3202L137.16 82.3199Z" fill="#FD68CE"/>
<path d="M146.28 164.58H155.46V173.7H146.28V164.58Z" fill="#FD68CE"/>
<path d="M137.16 155.46H146.28L146.28 164.58L137.16 164.58V155.46Z" fill="#FD68CE"/>
<path d="M118.86 146.28H137.16L137.16 155.46L118.86 155.46V146.28Z" fill="#FD68CE"/>
<path d="M118.86 127.98L128.04 127.98L128.04 137.16H118.86V127.98Z" fill="#FD68CE"/>
<path d="M109.74 91.4397H118.86V109.74H109.74V91.4397Z" fill="#FD68CE"/>
<path d="M73.1399 137.16L118.86 137.16V146.28L73.1399 146.28V137.16Z" fill="#FD68CE"/>
<path d="M82.3199 118.859H109.74V127.979H82.3199V118.859Z" fill="#FD68CE"/>
<path d="M73.1399 91.4397H82.3199V109.74H73.1399V91.4397Z" fill="#FD68CE"/>
<path d="M64.02 127.98L73.1399 127.98L73.1399 137.16L64.0199 137.16L64.02 127.98Z" fill="#FD68CE"/>
<path d="M54.8999 146.28L73.1399 146.28L73.1399 155.46H54.8999V146.28Z" fill="#FD68CE"/>
<path d="M45.72 155.46L54.8999 155.46L54.9 164.58H45.72V155.46Z" fill="#FD68CE"/>
<path d="M36.6 164.58L45.72 164.58L45.72 173.7H36.6V164.58Z" fill="#FD68CE"/>
<path d="M18.3 73.1399L27.42 73.1402L27.42 82.3199L18.3 82.3202L18.3 73.1399Z" fill="#FD68CE"/>
<path d="M9.17998 91.4397L27.42 91.4399L27.42 100.56H9.17998V91.4397Z" fill="#FD68CE"/>
<path d="M0 100.559L9.17998 100.56L9.18 109.739H0V100.559Z" fill="#FD68CE"/>
</svg>
