<svg width="74" height="192" viewBox="0 0 74 192" fill="none" xmlns="http://www.w3.org/2000/svg">
<path fill-rule="evenodd" clip-rule="evenodd" d="M63 11V0H11V11H0V181H11V192H63V181H74V11H63ZM22 44V148H52V44H22Z" fill="#594E2A"/>
<path fill-rule="evenodd" clip-rule="evenodd" d="M11 170H0V22H11V11H63V22H74V170H63V181H11V170ZM22 44V148H52V44H22Z" fill="#655932"/>
<path fill-rule="evenodd" clip-rule="evenodd" d="M22 159H11V33H22V22H52V33H63V159H52V170H22V159ZM22 44V148H52V44H22Z" fill="#2B291B"/>
</svg>
