<svg width="96" height="107" viewBox="0 0 96 107" fill="none" xmlns="http://www.w3.org/2000/svg">
<path d="M74 107H22V96H11L11 85H0L0 33H11V22H22L22 11H74V22H85V33H96V85H85V96H74V107Z" fill="#E150A2" fill-opacity="0.3"/>
<path d="M74 96H22V85H11L11 74H0L0 22H11V11H22L22 0H74V11H85V22H96V74H85V85H74V96Z" fill="#E150A2"/>
<path d="M74 74V85H22V74H11L11 22H22L22 11H74V22H85V74H74Z" fill="#FD68CE"/>
<path d="M31 71V37.0476H37.5806V31.5714H44.1613V25H52.9355V31.5714H58.4194V37.0476H65V71H56.2258V58.9524H40.871V71H31ZM40.871 49.0952H56.2258V40.3333H49.6452V34.8571H46.3548V40.3333H40.871V49.0952Z" fill="#201522" fill-opacity="0.3"/>
</svg>
