<svg xmlns="http://www.w3.org/2000/svg" width="472.59pt" height="252.1pt" version="1.1" viewBox="0 0 472.59 252.1"><path d="m0.01 0.0050426c157.52 0.02 315.05-0.04 472.58 0.03-0.11 84.02-0.08 168.04-0.02 252.06-157.52 0-315.05 0.01-472.57 0 0.01-84.03-0.01-168.06 0.01-252.09" fill="#007ac2"/><path d="m438.5 33.039c-1.7187 0.02651-3.4354 0.37383-5.061 1.0957-5.8 2.23-9.7004 8.4309-9.1304 14.631 0.28 7.49 7.3005 13.94 14.791 13.6 8.13 0.25 15.419-7.5804 14.459-15.71-0.13813-7.8-7.6109-13.731-15.059-13.616zm0.19629 2.4243c6.0789-0.03237 12.057 4.8052 12.472 11.102 0.87 6.57-4.5189 12.97-11.089 13.4-6.61 0.79-13.141-4.7409-13.361-11.401-0.5-5.24 3.0008-10.349 7.8208-12.259 1.3462-0.56812 2.7544-0.83482 4.1572-0.84228zm-1.7124 4.5483c-1.502 9e-3 -3.0125 0.10869-4.415 0.03369 0.08 5.29 0.0493 10.58 0.0293 15.87 0.63-0.01 1.8805-0.05031 2.5005-0.07031-0.05-2.3-0.0896-4.5997-0.0996-6.9097 1.45 0.35 3.3991 0.05025 4.3491 1.5103 1.96 2.23 2.7003 6.4493 6.5303 5.5693-1.47-2.53-3.1197-4.9598-5.1797-7.0298 2.94-0.78 5.3402-4.31 3.1802-7.04-1.9125-1.7125-4.3917-1.9486-6.895-1.9336zm-1.9658 2.1841c2.45 0.13 7.7403-0.64021 7.0503 3.2798-1.68 2.13-4.7003 1.3501-7.0503 1.6201-0.01-1.63-0.01-3.2699 0-4.8999zm-384.42 0.84228c-11.345 0-22.689 0.01162-34.034 0.03662 0.08 3.84 0.0698 7.6707 0.04981 11.511 2.38 0.95 5.1299 1.6103 6.6899 3.8203 1.82 2.33 1.9198 5.4095 2.0098 8.2295 0.02 43.89-0.0098 87.791 0.01025 131.68-3.12-0.01-6.2301-0.0103-9.3501-0.0103 0.01 10.4 0 20.789 0 31.189 58.87 0 117.74 0.01 176.6 0 0.02-16.82-0.1209-33.63 0.0791-50.44-3.83 4.2-7.9192 8.1604-12.199 11.9-5.27 4.63-12.23 7.6296-19.32 7.3696-28.85-0.10001-57.711 0.10038-86.561-0.0996 0.21-42.54 0.05085-85.09 0.09082-127.63 0.14-3.73-0.56029-7.759 1.1997-11.209 1.74-3.15 5.5702-3.8307 8.7202-4.7607-0.02003-3.85-0.02018-7.7003 0.0498-11.55-11.345-0.025-22.691-0.03662-34.036-0.03662zm168.69 42.155c-1.4358 0.03945-3.0376 0.70184-4.3257 1.0225-3.47 1.31-7.4305 1.61-10.521 3.75-1.01 3.94-0.13035 8.21-0.36034 12.29-2.65 0-5.2995 0.01-7.9395 0.0395 0.05 2.15 0.0796 4.3102 0.0996 6.4702 2.65 0.25999 7.77-1.1709 8.02 2.7891 0.21 16.65 0.0499 33.32 0.22998 49.97 0.99 4.86 5.7297 8.5396 10.66 8.6396 7.22 0.61001 13.98-2.8799 19.33-7.4399-1.24-1.09-2.4687-2.1795-3.6987-3.2695-2.01 1.11-3.9306 2.7608-6.3106 2.8608-2.47-0.67-1.7107-3.8205-1.9307-5.7305 0.18-15.46-0.41989-30.95 0.12011-46.38 2.73-2.86 7.6109-0.72084 11.171-1.3608 0-2.15 9e-3 -4.31 0.0293-6.46-3.89-0.01-7.7892 7e-4 -11.679-0.0293 0-5.22 0.29969-10.461-0.0703-15.671-0.69124-1.1769-1.7074-1.5219-2.8242-1.4912zm-47.852 18.727c-2.4367-0.0511-4.8815 0.16235-7.314 0.71485-6.12 1.5-12.37 5.2304-14.58 11.44-2.57 6.86-3.3404 14.261-3.1904 21.541 0.14 7.21 0.38029 14.669 3.3003 21.379 2.3 5.54 7.9601 8.7298 13.39 10.55 10.15 3.15 20.88-9e-3 30.23-4.1689-0.42-6.32-0.51045-12.671 0.0395-18.981-4.73 0-9.4494-0.0197-14.169 0.0103-0.38 4.71-0.0601 9.5106-1.04 14.161-0.46 2.39-2.3608 4.8892-5.0508 4.6392-4.5-0.08-6.9092-4.7797-7.4092-8.6997-1.68-10.9-2.3602-22.02-0.99023-32.99 0.54999-3.83 0.50955-8.1193 3.0395-11.279 2.5-3.39 8.9504-2.5903 9.9404 1.7197 0.86001 3.95 0.99983 8.0298 0.56983 12.05 4.65 0.04 9.2894 0.0305 13.939 0.0205-0.47-5.5-0.22928-11.021 0.49072-16.491-6.645-2.925-13.886-5.4615-21.196-5.6148zm199.61 0.10987c-2.2645 0.0352-4.5279 0.28061-6.7529 0.74561-8.77 1.15-16.76 7.7694-18.35 16.649-1.81 10.14-1.7092 20.64-0.13917 30.8 1.05 7.31 5.9904 14.16 13.11 16.56 8.23 2.55 17.319 2.8913 25.529 0.0513 7.33-2.71 12.351-9.7312 13.881-17.241 1.91-9.14 2.43-18.669 0.75-27.889-1.27-5.5-3.6703-11.33-8.5503-14.55-5.8725-3.4425-12.684-5.231-19.478-5.1255zm-49.188 0.0337c-4.6435-0.0719-9.268 0.77056-13.525 2.7524-6.86 3.16-11.75 10.289-11.82 17.899-0.09 5.21-0.43991 11.71 4.1001 15.3 5.65 4.01 12.89 3.0608 19.38 3.7808 5.69 1.15 6.4496 8.1388 4.8896 12.759-0.9 4.34-5.2996 9.3099-10.08 7.4399-4.78-3.48-3.6493-10.13-4.2993-15.28-4.65-0.13-9.31-9e-3 -13.96-0.14942-0.03 5.99-0.04 11.98 0 17.98 9.98 4.77 22.44 6.3707 32.59 1.2407 6.76-3.4 10.399-10.851 10.989-18.151 0.58999-5.7 0.5412-12.76-4.5088-16.55-5.75-3.76-12.931-3.6396-19.491-4.5996-3.12-0.42-4.819-3.8805-4.229-6.7705 0.59-3.16 1.059-6.58 3.019-9.23 2.47-3.24 8.4006-2.3994 9.8306 1.4106 1.17 3.2 0.62975 6.679 0.73974 9.999 4.52 0.03 9.0401 0.03 13.56 0-0.09-5.17-0.18943-10.34 0.0806-15.51-5.2931-2.6269-11.296-4.2288-17.266-4.3213zm-56.142 0.21972c-8.5781-0.0773-17.191 1.8694-25.584 3.4219 0.69 5.87 0.27082 11.79-0.65918 17.6 5.08 0.06 10.169 0.0502 15.259 0.0103-0.01-3.55-0.30938-7.1297 0.14062-10.66 1.4-5.79 11.22-6.3204 13.33-0.88037 0.52 6.36-2e-5 12.79 0.22998 19.17-7.75-2.54-16.691-4.1509-24.261-0.21094-6.16 2.59-9.399 9.4809-9.249 15.901 0.17 4.85 0.56912 9.9488 2.8491 14.319 2.43 4.59 7.5211 6.7108 12.391 7.5908 6.79 1.42 13.58-1.31 19.16-5.02-0.04 1.5-0.0901 3.0002-0.12012 4.5103 8.26-0.15 16.53-0.55102 24.79-0.041-0.01-1.55-0.01-3.0892 0.0103-4.6392-1.81 0.05-3.7507 0.57952-5.4507-0.25049-1.63-1.25-2.0503-3.4301-2.0303-5.3701 0.01-14.35 0.0302-28.709 0.0103-43.059-0.21999-6.39-6.5493-10.42-12.259-11.55-2.8425-0.565-5.6982-0.8165-8.5576-0.84228zm-147.35 0.54199c-0.75792 5e-3 -1.513 0.0236-2.2617 0.0498-7.41 0.79-14.84 1.6905-22.09 3.4805 0.62001 5.79 0.26075 11.629-0.48925 17.399 4.95-0.03 9.8991-0.019 14.849-0.019 0.32-4.66-1.3798-10.591 2.7202-14.051 3.43-1.94 9.7198-1.5103 10.84 2.9897 0.29001 6.17-0.11931 12.36 0.20069 18.53-6.08-1.82-12.541-3.2293-18.891-2.0493-4.59 1.24-9.3893 3.4893-11.799 7.8193-3.99 6.55-2.9198 14.81-0.73975 21.79 1.62 5.3 6.8098 8.4412 11.99 9.5112 7.05 1.95 14.46-0.59099 20.19-4.771 0.04 1.52 0.0799 3.0403 0.10987 4.5703 8.12-0.23 16.25-0.62051 24.36-0.0205 0-1.55 9e-3 -3.0892 0.0293-4.6392-1.66 0.07-3.47 0.72912-5.02-0.15088-2.17-0.9-2.259-3.5996-2.269-5.5796 0.15-13.69 0.0194-27.38 0.0894-41.07 0.22-4.42-2.5204-8.6197-6.3604-10.66-4.69-2.59-10.153-3.1674-15.458-3.1304zm280.43 1.3506c0.02 0.78 0.0401 2.3401 0.0601 3.1201 3.75 0.14 6.18 3.3489 6.52 6.8789 1.95 13.35 4.1606 26.68 7.1206 39.86 0.96 3.91 1.2692 8.2003 3.7192 11.55 1.08 1.54 2.9211 2.7804 4.8911 2.3804 4.81-1.06 8.3594-4.6694 11.859-7.8794-1.18 7.55-1.9399 16.099-7.6699 21.769-4.37 4.3-11.24 2.7896-16.16 0.32958-0.91 1.15-1.7994 2.3012-2.6894 3.4512 6.09 3.13 12.62 6.3401 19.67 5.8301 8.19-0.22999 14.85-7.2311 16.56-14.931 5.32-21.09 7.639-42.84 13.519-63.8 0.84-2.78 4.0113-3.5389 6.3413-4.6289 0.12-0.73001 0.3397-2.2012 0.4497-2.9312-10.06 1.38-20.091-0.43-30.141-0.75-0.08 1.25-0.15998 2.5-0.22998 3.75 2.7 0.33 6.9802-0.0189 7.7402 3.3911-1.31 11.04-2.7799 22.079-4.1499 33.119-0.59 3.82-2.1296 8.4113-6.0996 9.8613-1.75-0.52-1.9905-2.5007-2.2705-4.0108-2.28-12.55-4.1894-25.19-5.3394-37.89-0.49-3.81 3.7298-4.8302 6.5698-5.4302 0.01-0.73 0.0193-2.1806 0.0293-2.9106-10.09 0.73999-20.21 0.66109-30.3-0.12891zm-26.675 4.333c2.0952 0.0587 4.178 0.96621 5.5049 2.6162 3.37 3.64 3.1304 8.9498 3.6504 13.55 0.17 10.25 0.53056 20.64-1.4194 30.76-1.16 4.9-6.4501 8.3809-11.37 6.6709-3.13-1.56-4.5401-5.2503-4.8501-8.5503-0.86-11.32-1.2495-22.72-0.26953-34.04 0.36-4.07 2.049-8.7098 5.959-10.55 0.88749-0.33438 1.8425-0.48368 2.7949-0.45703zm-109.58 26.225c1.7247-9e-3 3.4345 0.46689 4.7095 1.6919 3.82 2.75 3.0698 8.0394 3.0498 12.149 0.04 4.24-1.0997 8.9107-4.7197 11.511-2.61 2.27-6.8213 1.5494-9.0513-0.89062-3.63-3.46-2.7692-9.0301-2.9092-13.56-0.18-4.19 1.7301-8.8594 5.8901-10.419 0.95625-0.29625 1.9959-0.4766 3.0308-0.48193zm-146.83 0.2373c2.8576-0.11019 5.7206 1.4819 7.1206 3.9844 1.63 4.04 1.2604 8.5202 0.88037 12.76-0.39 4.07-2.691 8.2592-6.731 9.6592-3.99 0.9-8.3793-2.2402-9.0293-6.2402-0.74-4.32-0.98012-8.7889-0.12012-13.109 0.69-3.3 3.3392-6.1609 6.6592-6.9009 0.40375-0.0875 0.812-0.13806 1.2202-0.15381z" fill="#fff"/></svg>
