<svg width="96" height="107" viewBox="0 0 96 107" fill="none" xmlns="http://www.w3.org/2000/svg">
<path d="M74 107H22V96H11L11 85H0L0 33H11V22H22L22 11H74V22H85V33H96V85H85V96H74V107Z" fill="#E150A2" fill-opacity="0.3"/>
<path d="M74 107H22V96H11L11 85H0L0 33H11V22H22L22 11H74V22H85V33H96V85H85V96H74V107Z" fill="#E150A2"/>
<path d="M74 85V96H22V85H11L11 33H22L22 22H74V33H85V85H74Z" fill="#FD68CE"/>
<path d="M37.5455 81.8182V75.2727H31V42.5455H37.5455V36H58.2727V42.5455H64.8182V57.8182H58.2727V60H64.8182V75.2727H58.2727V81.8182H37.5455ZM40.8182 72H56.0909V63.2727H44.0909V54.5455H56.0909V45.8182H40.8182V72Z" fill="#201522" fill-opacity="0.3"/>
</svg>
