<svg width="96" height="107" viewBox="0 0 96 107" fill="none" xmlns="http://www.w3.org/2000/svg">
<path d="M74 107H22V96H11L11 85H0L0 33H11V22H22L22 11H74V22H85V33H96V85H85V96H74V107Z" fill="#E150A2" fill-opacity="0.3"/>
<path d="M74 107H22V96H11L11 85H0L0 33H11V22H22L22 11H74V22H85V33H96V85H85V96H74V107Z" fill="#E150A2"/>
<path d="M74 85V96H22V85H11L11 33H22L22 22H74V33H85V85H74Z" fill="#FD68CE"/>
<path d="M31 82V48.0476H37.5806V42.5714H44.1613V36H52.9355V42.5714H58.4194V48.0476H65V82H56.2258V69.9524H40.871V82H31ZM40.871 60.0952H56.2258V51.3333H49.6452V45.8571H46.3548V51.3333H40.871V60.0952Z" fill="#201522" fill-opacity="0.3"/>
</svg>
