<svg width="150" height="122" viewBox="0 0 150 122" fill="none" xmlns="http://www.w3.org/2000/svg">
<path d="M142.875 7.125H150V35.7188H142.875V7.125Z" fill="#F4C182"/>
<path d="M128.578 57.1406H135.703V85.6875H128.578V57.1406Z" fill="#F4C182"/>
<path d="M128.578 35.7188H142.875V42.8438H128.578V35.7188Z" fill="#F4C182"/>
<path d="M121.453 85.6875L128.578 85.6875V99.9844H121.453V85.6875Z" fill="#F4C182"/>
<path d="M121.453 42.8438H128.578V57.1406L121.453 57.1406V42.8438Z" fill="#F4C182"/>
<path d="M114.281 0H142.875V7.125H114.281V0Z" fill="#F4C182"/>
<path d="M114.281 99.9844L121.453 99.9844L121.453 107.109H114.281V99.9844Z" fill="#F4C182"/>
<path d="M100.031 107.109H114.281V114.281H100.031V107.109Z" fill="#F4C182"/>
<path d="M100.031 7.125H114.281V14.25H100.031V7.125Z" fill="#F4C182"/>
<path d="M50.0156 114.281H100.031V121.406H50.0156V114.281Z" fill="#F4C182"/>
<path d="M50.0156 0H100.031V7.125H50.0156V0Z" fill="#F4C182"/>
<path d="M35.7188 107.109H50.0156V114.281H35.7188V107.109Z" fill="#F4C182"/>
<path d="M35.7188 7.125H50.0156V14.25H35.7188V7.125Z" fill="#F4C182"/>
<path d="M28.5938 99.9844H35.7188L35.7188 107.109H28.5938V99.9844Z" fill="#F4C182"/>
<path d="M21.4219 85.6875H28.5937L28.5938 99.9844L21.4219 99.9844V85.6875Z" fill="#F4C182"/>
<path d="M21.4219 42.8438H28.5937V57.1406H21.4219V42.8438Z" fill="#F4C182"/>
<path d="M14.2969 57.1406L21.4219 57.1406V85.6875L14.2969 85.6875V57.1406Z" fill="#F4C182"/>
<path d="M7.17188 35.7188H21.4219V42.8438H7.17188V35.7188Z" fill="#F4C182"/>
<path d="M7.17188 0H35.7188V7.125H7.17188V0Z" fill="#F4C182"/>
<path d="M0 7.125H7.17188V35.7188H0V7.125Z" fill="#F4C182"/>
<path d="M142.875 35.7188V7.125H114.281V14.25H100.031V7.125H50.0156V14.25H35.7188V7.125H7.17188V35.7188H21.4219V42.8438H28.5937V57.1406H21.4219V85.6875H28.5937L28.5938 99.9844H35.7188L35.7188 107.109H50.0156V114.281H100.031V107.109H114.281V99.9844L121.453 99.9844V85.6875L128.578 85.6875V57.1406L121.453 57.1406V42.8438H128.578V35.7188H142.875Z" fill="#F4C182"/>
<path d="M121.453 14.25H135.703V28.5469H121.453V14.25Z" fill="#935C43"/>
<path d="M121.453 14.25H135.703V28.5469H121.453V14.25Z" fill="#935C43"/>
<path d="M92.8594 35.7188H100.031V42.8438H92.8594V35.7188Z" fill="#703F28"/>
<path d="M85.7344 71.3906H92.8594V78.5625H85.7344V71.3906Z" fill="#703F28"/>
<path d="M57.1406 49.9688V57.1406H64.3125V64.2656H71.4375V71.3906H78.5625V64.2656H85.7344V57.1406H92.8594V49.9688H57.1406Z" fill="#703F28"/>
<path d="M71.4375 78.5625L85.7344 78.5625V85.6875H71.4375V78.5625Z" fill="#703F28"/>
<path d="M50.0156 35.7188H57.1406V42.8438H50.0156V35.7188Z" fill="#703F28"/>
<path d="M14.2969 14.25H28.5938V28.5469H14.2969V14.25Z" fill="#935C43"/>
<path d="M14.2969 14.25H28.5938V28.5469H14.2969V14.25Z" fill="#935C43"/>
<path d="M121.453 85.6875L128.578 85.6875V99.9844H121.453V85.6875Z" fill="#E8AB61"/>
<path d="M114.281 99.9844L121.453 99.9844L121.453 107.109H114.281V99.9844Z" fill="#E8AB61"/>
<path d="M100.031 107.109H114.281V114.281H100.031V107.109Z" fill="#E8AB61"/>
<path d="M50.0156 114.281H100.031V121.406H50.0156V114.281Z" fill="#E8AB61"/>
<path d="M35.7188 107.109H50.0156V114.281H35.7188V107.109Z" fill="#E8AB61"/>
<path d="M28.5938 99.9844H35.7188L35.7188 107.109H28.5938V99.9844Z" fill="#E8AB61"/>
<path d="M21.4219 85.6875H28.5937L28.5938 99.9844L21.4219 99.9844V85.6875Z" fill="#E8AB61"/>
<path d="M8 57H36V71H8V57Z" fill="#EE946E"/>
<path d="M115 57H143V71H115V57Z" fill="#EE946E"/>
</svg>
