<svg width="150" height="176" viewBox="0 0 150 176" fill="none" xmlns="http://www.w3.org/2000/svg">
<path d="M141.685 108.82H150V150.677H141.685V108.82Z" fill="#A82130"/>
<path d="M133.37 150.677H141.685V159.027H133.37V150.677Z" fill="#A82130"/>
<path d="M133.37 100.47H141.685V108.82H133.37V100.47Z" fill="#A82130"/>
<path d="M125 159.027H133.37V167.432H125V159.027Z" fill="#A82130"/>
<path d="M125 92.0654H133.37V100.47H125V92.0654Z" fill="#A82130"/>
<path d="M83.3151 167.432H125L125 175.781H83.3151V167.432Z" fill="#A82130"/>
<path d="M75 159.027H83.3151V167.432H75V159.027Z" fill="#A82130"/>
<path d="M66.6849 100.47H75V108.82H66.6849V100.47Z" fill="#A82130"/>
<path d="M75 83.7158V100.47H83.3151V92.0654H125L125 83.7158H75Z" fill="#A82130"/>
<path fill-rule="evenodd" clip-rule="evenodd" d="M141.685 150.677V108.82H133.37V100.47H125V92.0654H83.3151V100.47H75V108.82H66.6849V150.677H75V159.027H83.3151V167.432H125V159.027H133.37V150.677H141.685ZM100 142.328H91.6849V150.677H100V142.328ZM83.3151 117.169H75V142.328H83.3151V117.169Z" fill="#A82130"/>
<path fill-rule="evenodd" clip-rule="evenodd" d="M58.3151 108.82H66.6849V100.47H75V83.7158H66.6849V75.3113H25V83.7158H16.6302V92.0654H8.3151V133.923H16.6302V142.328H25V150.677H58.3151V108.82ZM25 125.574H33.3151V133.923H25V125.574H16.6302V100.47H25V125.574Z" fill="#A82130"/>
<path d="M141.685 108.82H150V150.677H141.685V108.82Z" fill="#821313"/>
<path d="M133.37 150.677H141.685V159.027H133.37V150.677Z" fill="#821313"/>
<path d="M133.37 100.47H141.685V108.82H133.37V100.47Z" fill="#821313"/>
<path d="M125 159.027H133.37V167.432H125V159.027Z" fill="#821313"/>
<path d="M125 92.0654H133.37V100.47H125V92.0654Z" fill="#821313"/>
<path d="M83.3151 167.432H125L125 175.781H83.3151V167.432Z" fill="#821313"/>
<path d="M75 159.027H83.3151V167.432H75V159.027Z" fill="#821313"/>
<path d="M66.6849 150.677V108.82H58.3151V150.677H25V159.027H75V150.677H66.6849Z" fill="#821313"/>
<path d="M66.6849 100.47H75V108.82H66.6849V100.47Z" fill="#821313"/>
<path d="M66.6849 75.3113H75V83.7158H66.6849V75.3113Z" fill="#821313"/>
<path d="M66.6849 75.3113V66.9617H25V75.3113H66.6849Z" fill="#821313"/>
<path d="M16.6302 142.328H25V150.677H16.6302V142.328Z" fill="#821313"/>
<path d="M16.6302 75.3113H25V83.7158H16.6302V75.3113Z" fill="#821313"/>
<path d="M8.3151 133.923H16.6302V142.328H8.3151V133.923Z" fill="#821313"/>
<path d="M8.3151 83.7158H16.6302V92.0654H8.3151V83.7158Z" fill="#821313"/>
<path d="M0 92.0654H8.3151V133.923H0V92.0654Z" fill="#821313"/>
<path d="M75 83.7158V100.47H83.3151V92.0654H125L125 83.7158H75Z" fill="#821313"/>
<path d="M75 117.169H83.3151V142.328H75V117.169Z" fill="#821313"/>
<path d="M91.6849 142.328H100V150.677H91.6849V142.328Z" fill="#821313"/>
<path d="M25 100.47H16.6302V125.574H25V100.47Z" fill="#821313"/>
<path d="M33.3151 125.574H25V133.923H33.3151V125.574Z" fill="#821313"/>
<path d="M75 117.169H83.3151V142.328H75V117.169Z" fill="#CF4848"/>
<path d="M91.6849 142.328H100V150.677H91.6849V142.328Z" fill="#CF4848"/>
<path d="M25 100.47H16.6302V125.574H25V100.47Z" fill="#CF4848"/>
<path d="M33.3151 125.574H25V133.923H33.3151V125.574Z" fill="#CF4848"/>
<path d="M75.3906 33.5083H83.7057V41.8579H75.3906V33.5083Z" fill="#09511F"/>
<path d="M67.0755 41.8579H75.3906V50.2075H67.0755V41.8579Z" fill="#09511F"/>
<path d="M58.7057 50.2075H67.0755V58.6121H58.7057V50.2075Z" fill="#09511F"/>
<path d="M92.0755 33.5083V25.1038H100.391V83.7158H108.76V33.5083H125.391V25.1038H133.76V16.7541H142.076V0H117.076V8.34961H108.76V16.7541H100.391V8.34961H92.0755V0H50.3906V16.7541H58.7057V25.1038H83.7057V33.5083H92.0755Z" fill="#09511F"/>
<path d="M58.7057 66.9617V58.6121H50.3906V66.9617H58.7057Z" fill="#09511F"/>
</svg>
