<svg width="150" height="150" viewBox="0 0 150 150" fill="none" xmlns="http://www.w3.org/2000/svg">
<path d="M52.9139 150V141.142H35.3145V132.343L26.457 132.343V123.543H17.6573V114.685H8.79969V97.0282H0V52.9718H8.79969V35.3145H17.6573V26.457L26.457 26.457V17.6573H35.3145V8.85758H52.9139V0H97.0282V8.85758H114.685L114.685 17.6573H123.485V26.457H132.343V35.3145H141.142V52.9718H150V97.0282H141.142V114.685H132.343V123.543H123.485L123.485 132.343H114.685V141.142H97.0282L97.0282 150H52.9139Z" fill="#FBE777"/>
<path d="M97.0283 17.6573H114.686V26.457H123.485V35.3145H132.343V52.9718H141.143V97.0282H132.343V114.685H123.485V123.543H114.686V132.343H97.0283V141.142H52.9141V150H97.0283V141.142H114.686V132.343H123.485V123.543H132.343V114.685H141.143V97.0282H150V52.9718H141.143V35.3145H132.343V26.457H123.485V17.6573H114.686V8.85758H97.0283V0H52.9141V8.85758H97.0283V17.6573Z" fill="#D18D39"/>
<path d="M123.485 52.9718H132.343V97.0282H123.485V52.9718Z" fill="#F2D24E"/>
<path d="M114.685 97.0282H123.485L123.485 105.886H114.685V97.0282Z" fill="#F2D24E"/>
<path d="M114.685 44.1142H123.485L123.485 52.9718H114.685V44.1142Z" fill="#F2D24E"/>
<path d="M105.886 105.886L114.685 105.886V114.685H105.886V105.886Z" fill="#F2D24E"/>
<path d="M105.886 35.3145H114.685V44.1142L105.886 44.1142V35.3145Z" fill="#F2D24E"/>
<path d="M97.0281 114.685L105.886 114.685V123.543H97.0281V114.685Z" fill="#F2D24E"/>
<path d="M97.0281 26.457H105.886V35.3145H97.0281V26.457Z" fill="#F2D24E"/>
<path d="M52.9139 123.543L97.0281 123.543L97.0281 132.343H52.9139V123.543Z" fill="#F2D24E"/>
<path d="M52.9139 17.6573H97.0281L97.0281 26.457L52.9139 26.457V17.6573Z" fill="#F2D24E"/>
<path d="M44.1142 114.685H52.9139L52.9139 123.543L44.1142 123.543V114.685Z" fill="#F2D24E"/>
<path d="M44.1142 26.457L52.9139 26.457L52.9139 35.3145H44.1142V26.457Z" fill="#F2D24E"/>
<path d="M35.3145 105.886H44.1142V114.685L35.3145 114.685V105.886Z" fill="#F2D24E"/>
<path d="M35.3145 35.3145H44.1142V44.1142H35.3145V35.3145Z" fill="#F2D24E"/>
<path d="M26.4569 97.0282H35.3145V105.886L26.4569 105.886V97.0282Z" fill="#F2D24E"/>
<path d="M26.4569 44.1142L35.3145 44.1142V52.9718H26.4569V44.1142Z" fill="#F2D24E"/>
<path d="M17.6572 52.9718H26.4569V97.0282H17.6572V52.9718Z" fill="#F2D24E"/>
<path d="M35.3145 132.343H52.9139V141.142H35.3145V132.343Z" fill="#D18D39"/>
<path d="M35.3145 8.85758H52.9139V17.6573H35.3145V8.85758Z" fill="#D18D39"/>
<path d="M26.457 123.543H35.3145L35.3145 132.343L26.457 132.343V123.543Z" fill="#D18D39"/>
<path d="M26.457 17.6573L35.3145 17.6573L35.3145 26.457H26.457V17.6573Z" fill="#D18D39"/>
<path d="M17.6573 114.685H26.457V123.543H17.6573V114.685Z" fill="#D18D39"/>
<path d="M17.6573 26.457L26.457 26.457V35.3145H17.6573V26.457Z" fill="#D18D39"/>
<path d="M8.79969 97.0282H17.6573V114.685H8.79969V97.0282Z" fill="#D18D39"/>
<path d="M8.79969 35.3145L17.6573 35.3145V52.9718H8.79969V35.3145Z" fill="#D18D39"/>
<path d="M0 52.9718H8.79969V97.0282H0V52.9718Z" fill="#D18D39"/>
<path d="M88.2286 79.4288H97.0283V97.0282H88.2286V79.4288Z" fill="#E0AD22"/>
<path d="M88.2286 52.9718H97.0283V61.7715H88.2286V52.9718Z" fill="#E0AD22"/>
<path d="M70.5713 105.886V114.685H79.371V105.886H88.2286L88.2286 97.0282H79.371V79.4288L88.2286 79.4288L88.2286 70.5712H79.371V52.9718L88.2286 52.9718L88.2286 44.1142H79.371V35.3145H70.5713V44.1142H61.7716V52.9718H70.5713V70.5712H61.7716V79.4288H70.5713V97.0282H61.7716V105.886H70.5713Z" fill="#E0AD22"/>
<path d="M52.9141 88.2285H61.7716L61.7716 97.0282H52.9141V88.2285Z" fill="#E0AD22"/>
<path d="M52.9141 52.9718L61.7716 52.9718V70.5712H52.9141V52.9718Z" fill="#E0AD22"/>
</svg>
