<svg width="116" height="94" viewBox="0 0 116 94" fill="none" xmlns="http://www.w3.org/2000/svg">
<path d="M104.095 41.3457H109.863V47.1134H104.095V41.3457Z" fill="#E7EDFF"/>
<path d="M104.095 18.1987H109.863V24.0044H104.095V18.1987Z" fill="#E7EDFF"/>
<path d="M98.2897 47.1134H104.095V52.9191H98.2897V47.1134Z" fill="#E7EDFF"/>
<path d="M98.2897 12.431L104.095 12.431V18.1987H98.2897V12.431Z" fill="#E7EDFF"/>
<path d="M92.5219 52.9191L98.2897 52.9191V58.6869L92.5219 58.6869V52.9191Z" fill="#E7EDFF"/>
<path d="M92.5219 6.66319H98.2897V12.431H92.5219V6.66319Z" fill="#E7EDFF"/>
<path d="M86.7162 58.6869H92.5219V64.4546H86.7162V58.6869Z" fill="#E7EDFF"/>
<path d="M80.9484 64.4546H86.7162L86.7162 70.2604H80.9484L80.9484 64.4546Z" fill="#E7EDFF"/>
<path d="M80.9484 41.3457H86.7162V47.1134H80.9484V41.3457Z" fill="#E7EDFF"/>
<path d="M80.9484 18.1987H86.7162V24.0044H80.9484V18.1987Z" fill="#E7EDFF"/>
<path d="M75.1807 70.2604H80.9484V76.0281H75.1807V70.2604Z" fill="#E7EDFF"/>
<path d="M75.1807 47.1134H80.9484V58.6869H75.1807V47.1134Z" fill="#E7EDFF"/>
<path d="M75.1807 12.431H80.9484V18.1987L75.1807 18.1987V12.431Z" fill="#E7EDFF"/>
<path d="M69.375 58.6869H75.1807L75.1807 70.2604H69.375L69.375 58.6869Z" fill="#E7EDFF"/>
<path d="M69.375 70.2604L63.6072 70.2604V87.6016L69.375 87.6016V81.8338H75.1807V76.0281H69.375V70.2604Z" fill="#E7EDFF"/>
<path d="M52.0337 87.6016H63.6072V93.3693H52.0337V87.6016Z" fill="#E7EDFF"/>
<path d="M52.0337 70.2604H46.266V76.0281H40.4603V81.8338H46.266V87.6016H52.0337V70.2604Z" fill="#E7EDFF"/>
<path d="M40.4603 58.6869H46.266V70.2604H40.4603V58.6869Z" fill="#E7EDFF"/>
<path d="M34.6925 70.2604H40.4603V76.0281H34.6925V70.2604Z" fill="#E7EDFF"/>
<path d="M34.6925 47.1134H40.4603V58.6869H34.6925V47.1134Z" fill="#E7EDFF"/>
<path d="M34.6925 12.431L40.4603 12.431V18.1987H34.6925V12.431Z" fill="#E7EDFF"/>
<path d="M28.9247 64.4546H34.6925V70.2604H28.9247V64.4546Z" fill="#E7EDFF"/>
<path d="M28.9247 41.3457L34.6925 41.3457V47.1134L28.9247 47.1134V41.3457Z" fill="#E7EDFF"/>
<path d="M28.9247 18.1987H34.6925V24.0044H28.9247V18.1987Z" fill="#E7EDFF"/>
<path d="M40.4603 6.66319V12.431H46.266V6.66319L69.375 6.66319V12.431L75.1807 12.431V6.66319L92.5219 6.66319V0.857483L23.119 0.857483V6.66319L40.4603 6.66319Z" fill="#E7EDFF"/>
<path d="M23.119 58.6869H28.9247V64.4546H23.119V58.6869Z" fill="#E7EDFF"/>
<path d="M17.3513 52.9191H23.119V58.6869H17.3513V52.9191Z" fill="#E7EDFF"/>
<path d="M17.3513 6.66319L23.119 6.66319V12.431H17.3513V6.66319Z" fill="#E7EDFF"/>
<path d="M11.5456 47.1134H17.3513L17.3513 52.9191H11.5456V47.1134Z" fill="#E7EDFF"/>
<path d="M11.5456 12.431H17.3513L17.3513 18.1987L11.5456 18.1987V12.431Z" fill="#E7EDFF"/>
<path d="M5.7778 41.3457H11.5456V47.1134H5.7778L5.7778 41.3457Z" fill="#E7EDFF"/>
<path d="M5.7778 35.5399H23.119V41.3457H28.9247V35.5399L86.7162 35.5399V41.3457H92.5219V35.5399L109.863 35.5399V41.3457H115.631V24.0044L109.863 24.0044V29.7722H92.5219V24.0044H86.7162V29.7722L28.9247 29.7722V24.0044H23.119V29.7722L5.7778 29.7722L5.7778 24.0044H0.0100403L0.0100403 41.3457H5.7778L5.7778 35.5399Z" fill="#E7EDFF"/>
<path d="M5.7778 18.1987H11.5456V24.0044H5.7778L5.7778 18.1987Z" fill="#E7EDFF"/>
<path d="M80.9484 41.3457H86.7162V35.5399L28.9247 35.5399V41.3457L34.6925 41.3457V47.1134H40.4603V58.6869H46.266V70.2604H52.0337V87.6016H63.6072V70.2604L69.375 70.2604L69.375 58.6869H75.1807V47.1134H80.9484V41.3457Z" fill="#E7EDFF"/>
<path d="M86.7162 24.0044H80.9484V18.1987L75.1807 18.1987V12.431L69.375 12.431V6.66319L46.266 6.66319V12.431H40.4603V18.1987H34.6925V24.0044H28.9247V29.7722L86.7162 29.7722V24.0044Z" fill="#E7EDFF"/>
<path d="M34.6925 12.431L40.4603 12.431V6.66319L23.119 6.66319V12.431H17.3513L17.3513 18.1987L11.5456 18.1987V24.0044H5.7778L5.7778 29.7722L23.119 29.7722V24.0044H28.9247V18.1987H34.6925V12.431Z" fill="#E7EDFF"/>
<path d="M40.4603 70.2604V58.6869H34.6925V47.1134L28.9247 47.1134V41.3457H23.119V35.5399H5.7778L5.7778 41.3457H11.5456V47.1134H17.3513L17.3513 52.9191H23.119V58.6869H28.9247V64.4546H34.6925V70.2604H40.4603Z" fill="#E7EDFF"/>
<path d="M104.095 41.3457H109.863V35.5399L92.5219 35.5399V41.3457H86.7162V47.1134H80.9484V58.6869H75.1807L75.1807 70.2604H80.9484L80.9484 64.4546H86.7162V58.6869H92.5219V52.9191L98.2897 52.9191V47.1134H104.095V41.3457Z" fill="#E7EDFF"/>
<path d="M109.863 24.0044H104.095V18.1987H98.2897V12.431H92.5219V6.66319L75.1807 6.66319V12.431H80.9484V18.1987H86.7162V24.0044H92.5219V29.7722H109.863V24.0044Z" fill="#E7EDFF"/>
<path d="M46.266 76.0281V70.2604H40.4603V76.0281H46.266Z" fill="#E7EDFF"/>
<path d="M75.1807 76.0281V70.2604H69.375V76.0281H75.1807Z" fill="#E7EDFF"/>
<path d="M104.095 41.3457H109.863V47.1134H104.095V41.3457Z" fill="#ACC1FF"/>
<path d="M104.095 18.1987H109.863V24.0044H104.095V18.1987Z" fill="#ACC1FF"/>
<path d="M98.2897 47.1134H104.095V52.9191H98.2897V47.1134Z" fill="#ACC1FF"/>
<path d="M98.2897 12.431L104.095 12.431V18.1987H98.2897V12.431Z" fill="#ACC1FF"/>
<path d="M92.5219 52.9191L98.2897 52.9191V58.6869L92.5219 58.6869V52.9191Z" fill="#ACC1FF"/>
<path d="M92.5219 6.66319H98.2897V12.431H92.5219V6.66319Z" fill="#ACC1FF"/>
<path d="M86.7162 58.6869H92.5219V64.4546H86.7162V58.6869Z" fill="#ACC1FF"/>
<path d="M80.9484 64.4546H86.7162L86.7162 70.2604H80.9484L80.9484 64.4546Z" fill="#ACC1FF"/>
<path d="M80.9484 41.3457H86.7162V47.1134H80.9484V41.3457Z" fill="#ACC1FF"/>
<path d="M80.9484 18.1987H86.7162V24.0044H80.9484V18.1987Z" fill="#ACC1FF"/>
<path d="M75.1807 70.2604H80.9484V76.0281H75.1807V70.2604Z" fill="#ACC1FF"/>
<path d="M75.1807 47.1134H80.9484V58.6869H75.1807V47.1134Z" fill="#ACC1FF"/>
<path d="M75.1807 12.431H80.9484V18.1987L75.1807 18.1987V12.431Z" fill="#ACC1FF"/>
<path d="M69.375 58.6869H75.1807L75.1807 70.2604H69.375L69.375 58.6869Z" fill="#ACC1FF"/>
<path d="M69.375 70.2604L63.6072 70.2604V87.6016L69.375 87.6016V81.8338H75.1807V76.0281H69.375V70.2604Z" fill="#ACC1FF"/>
<path d="M52.0337 87.6016H63.6072V93.3693H52.0337V87.6016Z" fill="#ACC1FF"/>
<path d="M52.0337 70.2604H46.266V76.0281H40.4603V81.8338H46.266V87.6016H52.0337V70.2604Z" fill="#ACC1FF"/>
<path d="M40.4603 58.6869H46.266V70.2604H40.4603V58.6869Z" fill="#ACC1FF"/>
<path d="M34.6925 70.2604H40.4603V76.0281H34.6925V70.2604Z" fill="#ACC1FF"/>
<path d="M34.6925 47.1134H40.4603V58.6869H34.6925V47.1134Z" fill="#ACC1FF"/>
<path d="M34.6925 12.431L40.4603 12.431V18.1987H34.6925V12.431Z" fill="#ACC1FF"/>
<path d="M28.9247 64.4546H34.6925V70.2604H28.9247V64.4546Z" fill="#ACC1FF"/>
<path d="M28.9247 41.3457L34.6925 41.3457V47.1134L28.9247 47.1134V41.3457Z" fill="#ACC1FF"/>
<path d="M28.9247 18.1987H34.6925V24.0044H28.9247V18.1987Z" fill="#ACC1FF"/>
<path d="M40.4603 6.66319V12.431H46.266V6.66319L69.375 6.66319V12.431L75.1807 12.431V6.66319L92.5219 6.66319V0.857483L23.119 0.857483V6.66319L40.4603 6.66319Z" fill="#ACC1FF"/>
<path d="M23.119 58.6869H28.9247V64.4546H23.119V58.6869Z" fill="#ACC1FF"/>
<path d="M17.3513 52.9191H23.119V58.6869H17.3513V52.9191Z" fill="#ACC1FF"/>
<path d="M17.3513 6.66319L23.119 6.66319V12.431H17.3513V6.66319Z" fill="#ACC1FF"/>
<path d="M11.5456 47.1134H17.3513L17.3513 52.9191H11.5456V47.1134Z" fill="#ACC1FF"/>
<path d="M11.5456 12.431H17.3513L17.3513 18.1987L11.5456 18.1987V12.431Z" fill="#ACC1FF"/>
<path d="M5.7778 41.3457H11.5456V47.1134H5.7778L5.7778 41.3457Z" fill="#ACC1FF"/>
<path d="M5.7778 35.5399H23.119V41.3457H28.9247V35.5399L86.7162 35.5399V41.3457H92.5219V35.5399L109.863 35.5399V41.3457H115.631V24.0044L109.863 24.0044V29.7722H92.5219V24.0044H86.7162V29.7722L28.9247 29.7722V24.0044H23.119V29.7722L5.7778 29.7722L5.7778 24.0044H0.0100403L0.0100403 41.3457H5.7778L5.7778 35.5399Z" fill="#ACC1FF"/>
<path d="M5.7778 18.1987H11.5456V24.0044H5.7778L5.7778 18.1987Z" fill="#ACC1FF"/>
</svg>
