<svg width="150" height="136" viewBox="0 0 150 136" fill="none" xmlns="http://www.w3.org/2000/svg">
<path d="M142.828 42.8436H150V71.4374H142.828V42.8436Z" fill="#F1CD78"/>
<path d="M135.703 71.4375L142.828 71.4374L142.828 85.7343H135.703V71.4375Z" fill="#F1CD78"/>
<path d="M135.703 28.5938H142.828L142.828 42.8436L135.703 42.8438V28.5938Z" fill="#F1CD78"/>
<path d="M128.531 85.7346L135.703 85.7343L135.703 99.9846H128.531V85.7346Z" fill="#F1CD78"/>
<path d="M128.531 42.8436L135.703 42.8438V71.4375L128.531 71.4374V42.8436Z" fill="#F1CD78"/>
<path d="M128.531 21.4218H135.703L135.703 28.5938L128.531 28.5937V21.4218Z" fill="#F1CD78"/>
<path d="M121.405 99.9844L128.531 99.9846L128.53 107.156H121.405V99.9844Z" fill="#F1CD78"/>
<path d="M121.405 71.4375L128.531 71.4374V85.7346L121.405 85.7343V71.4375Z" fill="#F1CD78"/>
<path d="M121.405 14.2967H128.53L128.531 21.4218L121.405 21.4217V14.2967Z" fill="#F1CD78"/>
<path d="M114.282 107.156L121.405 107.156L121.407 114.281H114.282V107.156Z" fill="#F1CD78"/>
<path d="M114.282 85.7346L121.405 85.7343L121.407 92.8596H114.282V85.7346Z" fill="#F1CD78"/>
<path d="M107.111 92.8593L114.282 92.8596L114.282 99.9843H107.111V92.8593Z" fill="#F1CD78"/>
<path d="M107.111 7.12509H121.407L121.405 14.2967L107.111 14.297V7.12509Z" fill="#F1CD78"/>
<path d="M99.9847 114.281L114.282 114.281L114.282 121.453H99.9847V114.281Z" fill="#F1CD78"/>
<path d="M92.8589 99.9844L107.111 99.9843L107.109 107.156H92.8589V99.9844Z" fill="#F1CD78"/>
<path d="M78.5614 121.453L99.9847 121.453L99.9833 128.578H78.5614V121.453Z" fill="#F1CD78"/>
<path d="M71.3898 107.156L92.8589 107.156L92.8585 114.281H71.3898V107.156Z" fill="#F1CD78"/>
<path d="M78.5614 28.5938H85.6864V35.7188H78.5614V28.5938Z" fill="#F1CD78"/>
<path d="M71.3898 0H107.109L107.111 7.12509L71.3898 7.125V0Z" fill="#F1CD78"/>
<path d="M64.267 35.7189L78.5614 35.7188L78.5638 42.8439H64.267V35.7189Z" fill="#F1CD78"/>
<path d="M42.8436 128.578L78.5614 128.578L78.5624 135.703H42.8436V128.578Z" fill="#F1CD78"/>
<path d="M42.8436 114.281L71.3898 114.281L71.3905 121.453H42.8436V114.281Z" fill="#F1CD78"/>
<path d="M57.1411 42.8436L64.267 42.8439L64.2661 50.0155H57.1411V42.8436Z" fill="#F1CD78"/>
<path d="M49.9695 7.12509L71.3898 7.125L71.3914 14.297H49.9695V7.12509Z" fill="#F1CD78"/>
<path d="M49.9695 50.0156L57.1411 50.0155L57.1414 57.1406H49.9695V50.0156Z" fill="#F1CD78"/>
<path d="M42.8436 57.1407L49.9695 57.1406L49.9686 71.4376H42.8436V57.1407Z" fill="#F1CD78"/>
<path d="M35.672 14.2967L49.9695 14.297L49.9689 21.4217H35.672V14.2967Z" fill="#F1CD78"/>
<path d="M28.5461 121.453L42.8436 121.453V128.578L28.5461 128.578V121.453Z" fill="#F1CD78"/>
<path d="M35.672 71.4375L42.8436 71.4376L42.8439 78.5625H35.672V71.4375Z" fill="#F1CD78"/>
<path d="M28.5461 21.4218L35.672 21.4217L35.6711 28.5937H28.5461V21.4218Z" fill="#F1CD78"/>
<path d="M21.4233 114.281H28.5483L28.5461 121.453L21.4233 121.453V114.281Z" fill="#F1CD78"/>
<path d="M21.4233 28.5938L28.5461 28.5937L28.5483 35.7188H21.4233V28.5938Z" fill="#F1CD78"/>
<path d="M14.2487 107.156H21.4205L21.4233 114.281L14.2487 114.281V107.156Z" fill="#F1CD78"/>
<path d="M14.2487 35.7189L21.4233 35.7188L21.4205 50.0158H14.2487V35.7189Z" fill="#F1CD78"/>
<path d="M7.12585 92.8593H14.2509L14.2487 107.156L7.12585 107.156V92.8593Z" fill="#F1CD78"/>
<path d="M7.12585 50.0156L14.2487 50.0158L14.2509 64.2656H7.12585V50.0156Z" fill="#F1CD78"/>
<path d="M0 64.2654L7.12585 64.2656V92.8593L0 92.8592V64.2654Z" fill="#F1CD78"/>
<path fill-rule="evenodd" clip-rule="evenodd" d="M121.405 85.7343L128.531 85.7346V99.9846L121.405 99.9844V107.156L114.282 107.156V114.281L99.9847 114.281V121.453L78.5614 121.453V128.578L42.8436 128.578V121.453H71.3905L71.3898 114.281H92.8585L92.8589 107.156H107.109L107.111 99.9843H114.282L114.282 92.8596H121.407L121.405 85.7343Z" fill="#F1CD78"/>
<path fill-rule="evenodd" clip-rule="evenodd" d="M135.703 71.4375V85.7343L128.531 85.7346V71.4374L135.703 71.4375Z" fill="#F1CD78"/>
<path fill-rule="evenodd" clip-rule="evenodd" d="M142.828 42.8436V71.4374L135.703 71.4375V42.8438L142.828 42.8436Z" fill="#F1CD78"/>
<path d="M78.5614 28.5938H85.6864V35.7188H78.5614V28.5938Z" fill="#F1CD78"/>
<path d="M64.267 35.7189L78.5614 35.7188L78.5638 42.8439H64.267V35.7189Z" fill="#F1CD78"/>
<path d="M57.1411 42.8436L64.267 42.8439L64.2661 50.0155H57.1411V42.8436Z" fill="#F1CD78"/>
<path d="M49.9695 50.0156L57.1411 50.0155L57.1414 57.1406H49.9695V50.0156Z" fill="#F1CD78"/>
<path d="M42.8436 57.1407L49.9695 57.1406L49.9686 71.4376H42.8436V57.1407Z" fill="#F1CD78"/>
<path d="M35.672 71.4375L42.8436 71.4376L42.8439 78.5625H35.672V71.4375Z" fill="#F1CD78"/>
<path fill-rule="evenodd" clip-rule="evenodd" d="M128.531 42.8436L135.703 42.8438V28.5938L128.531 28.5937V21.4218L121.405 21.4217V14.2967L107.111 14.297V7.12509L71.3898 7.125L71.3914 14.297H49.9695L49.9689 21.4217H35.672L35.6711 28.5937H28.5461L28.5483 35.7188H21.4233L21.4205 50.0158H14.2487L14.2509 64.2656H7.12585V92.8593H14.2509L14.2487 107.156H21.4205L21.4233 114.281H28.5483L28.5461 121.453L42.8436 121.453V114.281L71.3898 114.281V107.156L92.8589 107.156V99.9844L107.111 99.9843V92.8593L114.282 92.8596V85.7346L121.405 85.7343V71.4375L128.531 71.4374V42.8436ZM78.5614 28.5938H85.6864V35.7188H78.5614L78.5638 42.8439H64.267L64.2661 50.0155H57.1411L57.1414 57.1406H49.9695L49.9686 71.4376H42.8436L42.8439 78.5625H35.672V71.4375L42.8436 71.4376V57.1407L49.9695 57.1406V50.0156L57.1411 50.0155V42.8436L64.267 42.8439V35.7189L78.5614 35.7188V28.5938Z" fill="#F1CD78"/>
<path d="M128.531 42.8436L135.703 42.8438V71.4375L128.531 71.4374V42.8436Z" fill="#FFE4A4"/>
<path d="M128.531 21.4218H135.703L135.703 28.5938L128.531 28.5937V21.4218Z" fill="#FFE4A4"/>
<path d="M121.405 71.4375L128.531 71.4374V85.7346L121.405 85.7343V71.4375Z" fill="#FFE4A4"/>
<path d="M121.405 14.2967H128.53L128.531 21.4218L121.405 21.4217V14.2967Z" fill="#FFE4A4"/>
<path d="M114.282 85.7346L121.405 85.7343L121.407 92.8596H114.282V85.7346Z" fill="#FFE4A4"/>
<path d="M107.111 92.8593L114.282 92.8596L114.282 99.9843H107.111V92.8593Z" fill="#FFE4A4"/>
<path d="M107.111 7.12509H121.407L121.405 14.2967L107.111 14.297V7.12509Z" fill="#FFE4A4"/>
<path d="M92.8589 99.9844L107.111 99.9843L107.109 107.156H92.8589V99.9844Z" fill="#FFE4A4"/>
<path d="M71.3898 107.156L92.8589 107.156L92.8585 114.281H71.3898V107.156Z" fill="#FFE4A4"/>
<path d="M78.5614 28.5938H85.6864V35.7188H78.5614V28.5938Z" fill="#FFE4A4"/>
<path d="M71.3898 0H107.109L107.111 7.12509L71.3898 7.125V0Z" fill="#FFE4A4"/>
<path d="M64.267 35.7189L78.5614 35.7188L78.5638 42.8439H64.267V35.7189Z" fill="#FFE4A4"/>
<path d="M42.8436 114.281L71.3898 114.281L71.3905 121.453H42.8436V114.281Z" fill="#FFE4A4"/>
<path d="M57.1411 42.8436L64.267 42.8439L64.2661 50.0155H57.1411V42.8436Z" fill="#FFE4A4"/>
<path d="M49.9695 7.12509L71.3898 7.125L71.3914 14.297H49.9695V7.12509Z" fill="#FFE4A4"/>
<path d="M49.9695 50.0156L57.1411 50.0155L57.1414 57.1406H49.9695V50.0156Z" fill="#FFE4A4"/>
<path d="M42.8436 57.1407L49.9695 57.1406L49.9686 71.4376H42.8436V57.1407Z" fill="#FFE4A4"/>
<path d="M35.672 14.2967L49.9695 14.297L49.9689 21.4217H35.672V14.2967Z" fill="#FFE4A4"/>
<path d="M35.672 71.4375L42.8436 71.4376L42.8439 78.5625H35.672V71.4375Z" fill="#FFE4A4"/>
<path d="M28.5461 21.4218L35.672 21.4217L35.6711 28.5937H28.5461V21.4218Z" fill="#FFE4A4"/>
<path d="M21.4233 114.281H28.5483L28.5461 121.453L21.4233 121.453V114.281Z" fill="#FFE4A4"/>
<path d="M21.4233 28.5938L28.5461 28.5937L28.5483 35.7188H21.4233V28.5938Z" fill="#FFE4A4"/>
<path d="M14.2487 107.156H21.4205L21.4233 114.281L14.2487 114.281V107.156Z" fill="#FFE4A4"/>
<path d="M14.2487 35.7189L21.4233 35.7188L21.4205 50.0158H14.2487V35.7189Z" fill="#FFE4A4"/>
<path d="M7.12585 92.8593H14.2509L14.2487 107.156L7.12585 107.156V92.8593Z" fill="#FFE4A4"/>
<path d="M7.12585 50.0156L14.2487 50.0158L14.2509 64.2656H7.12585V50.0156Z" fill="#FFE4A4"/>
<path d="M0 64.2654L7.12585 64.2656V92.8593L0 92.8592V64.2654Z" fill="#FFE4A4"/>
<path fill-rule="evenodd" clip-rule="evenodd" d="M121.405 85.7343L128.531 85.7346V99.9846L121.405 99.9844V107.156L114.282 107.156V114.281L99.9847 114.281V121.453L78.5614 121.453V128.578L42.8436 128.578V121.453H71.3905L71.3898 114.281H92.8585L92.8589 107.156H107.109L107.111 99.9843H114.282L114.282 92.8596H121.407L121.405 85.7343Z" fill="#FFE4A4"/>
<path fill-rule="evenodd" clip-rule="evenodd" d="M135.703 71.4375V85.7343L128.531 85.7346V71.4374L135.703 71.4375Z" fill="#FFE4A4"/>
<path fill-rule="evenodd" clip-rule="evenodd" d="M142.828 42.8436V71.4374L135.703 71.4375V42.8438L142.828 42.8436Z" fill="#FFE4A4"/>
<path d="M78.5614 28.5938H85.6864V35.7188H78.5614V28.5938Z" fill="#FFE4A4"/>
<path d="M64.267 35.7189L78.5614 35.7188L78.5638 42.8439H64.267V35.7189Z" fill="#FFE4A4"/>
<path d="M57.1411 42.8436L64.267 42.8439L64.2661 50.0155H57.1411V42.8436Z" fill="#FFE4A4"/>
<path d="M49.9695 50.0156L57.1411 50.0155L57.1414 57.1406H49.9695V50.0156Z" fill="#FFE4A4"/>
<path d="M42.8436 57.1407L49.9695 57.1406L49.9686 71.4376H42.8436V57.1407Z" fill="#FFE4A4"/>
<path d="M35.672 71.4375L42.8436 71.4376L42.8439 78.5625H35.672V71.4375Z" fill="#FFE4A4"/>
<path fill-rule="evenodd" clip-rule="evenodd" d="M128.531 42.8436L135.703 42.8438V28.5938L128.531 28.5937V21.4218L121.405 21.4217V14.2967L107.111 14.297V7.12509L71.3898 7.125L71.3914 14.297H49.9695L49.9689 21.4217H35.672L35.6711 28.5937H28.5461L28.5483 35.7188H21.4233L21.4205 50.0158H14.2487L14.2509 64.2656H7.12585V92.8593H14.2509L14.2487 107.156H21.4205L21.4233 114.281H28.5483L28.5461 121.453L42.8436 121.453V114.281L71.3898 114.281V107.156L92.8589 107.156V99.9844L107.111 99.9843V92.8593L114.282 92.8596V85.7346L121.405 85.7343V71.4375L128.531 71.4374V42.8436ZM78.5614 28.5938H85.6864V35.7188H78.5614L78.5638 42.8439H64.267L64.2661 50.0155H57.1411L57.1414 57.1406H49.9695L49.9686 71.4376H42.8436L42.8439 78.5625H35.672V71.4375L42.8436 71.4376V57.1407L49.9695 57.1406V50.0156L57.1411 50.0155V42.8436L64.267 42.8439V35.7189L78.5614 35.7188V28.5938Z" fill="#FFE4A4"/>
<path d="M128.531 99.9846L121.405 99.9844V107.156H128.53L128.531 99.9846Z" fill="#FFE4A4"/>
<path d="M78.5615 28.5938H85.6865V35.7188H78.5615V28.5938Z" fill="#F6F6F6"/>
<path d="M64.2671 35.7189L78.5615 35.7188L78.564 42.8439H64.2671V35.7189Z" fill="#F6F6F6"/>
<path d="M57.1412 42.8436L64.2671 42.8439L64.2662 50.0155H57.1412V42.8436Z" fill="#F6F6F6"/>
<path d="M49.9696 50.0156L57.1412 50.0155L57.1415 57.1406H49.9696V50.0156Z" fill="#F6F6F6"/>
<path d="M42.8438 57.1407L49.9696 57.1406L49.9688 71.4376H42.8438V57.1407Z" fill="#F6F6F6"/>
<path d="M35.6721 71.4375L42.8438 71.4376L42.844 78.5625H35.6721V71.4375Z" fill="#F6F6F6"/>
<path fill-rule="evenodd" clip-rule="evenodd" d="M128.531 42.8436L135.703 42.8438V28.5938L128.531 28.5937V21.4218L121.405 21.4217V14.2967L107.111 14.297V7.12509L71.3899 7.125L71.3915 14.297H49.9696L49.969 21.4217H35.6721L35.6713 28.5937H28.5463L28.5485 35.7188H21.4235L21.4207 50.0158H14.2488L14.251 64.2656H7.12598V92.8593H14.251L14.2488 107.156H21.4207L21.4235 114.281H28.5485L28.5463 121.453L42.8438 121.453V114.281L71.3899 114.281V107.156L92.859 107.156V99.9844L107.111 99.9843V92.8593L114.282 92.8596V85.7346L121.405 85.7343V71.4375L128.531 71.4374V42.8436ZM78.5615 28.5938H85.6865V35.7188H78.5615L78.564 42.8439H64.2671L64.2662 50.0155H57.1412L57.1415 57.1406H49.9696L49.9688 71.4376H42.8438L42.844 78.5625H35.6721V71.4375L42.8438 71.4376V57.1407L49.9696 57.1406V50.0156L57.1412 50.0155V42.8436L64.2671 42.8439V35.7189L78.5615 35.7188V28.5938Z" fill="#F6F6F6"/>
<path d="M128.531 42.8436L135.703 42.8438V71.4375L128.531 71.4374V42.8436Z" fill="#F5D2F1"/>
<path d="M128.531 21.4218H135.703L135.703 28.5938L128.531 28.5937V21.4218Z" fill="#F5D2F1"/>
<path d="M121.405 71.4375L128.531 71.4374V85.7346L121.405 85.7343V71.4375Z" fill="#F5D2F1"/>
<path d="M121.405 14.2967H128.53L128.531 21.4218L121.405 21.4217V14.2967Z" fill="#F5D2F1"/>
<path d="M114.282 85.7346L121.405 85.7343L121.407 92.8596H114.282V85.7346Z" fill="#F5D2F1"/>
<path d="M107.111 92.8593L114.282 92.8596L114.282 99.9843H107.111V92.8593Z" fill="#F5D2F1"/>
<path d="M107.111 7.12509H121.407L121.405 14.2967L107.111 14.297V7.12509Z" fill="#F5D2F1"/>
<path d="M92.8589 99.9844L107.111 99.9843L107.109 107.156H92.8589V99.9844Z" fill="#F5D2F1"/>
<path d="M71.3898 107.156L92.8589 107.156L92.8585 114.281H71.3898V107.156Z" fill="#F5D2F1"/>
<path d="M78.5614 28.5938H85.6864V35.7188H78.5614V28.5938Z" fill="#F5D2F1"/>
<path d="M71.3898 0H107.109L107.111 7.12509L71.3898 7.125V0Z" fill="#F5D2F1"/>
<path d="M64.267 35.7189L78.5614 35.7188L78.5638 42.8439H64.267V35.7189Z" fill="#F5D2F1"/>
<path d="M42.8436 114.281L71.3898 114.281L71.3905 121.453H42.8436V114.281Z" fill="#F5D2F1"/>
<path d="M57.1411 42.8436L64.267 42.8439L64.2661 50.0155H57.1411V42.8436Z" fill="#F5D2F1"/>
<path d="M49.9695 7.12509L71.3898 7.125L71.3914 14.297H49.9695V7.12509Z" fill="#F5D2F1"/>
<path d="M49.9695 50.0156L57.1411 50.0155L57.1414 57.1406H49.9695V50.0156Z" fill="#F5D2F1"/>
<path d="M42.8436 57.1407L49.9695 57.1406L49.9686 71.4376H42.8436V57.1407Z" fill="#F5D2F1"/>
<path d="M35.672 14.2967L49.9695 14.297L49.9689 21.4217H35.672V14.2967Z" fill="#F5D2F1"/>
<path d="M35.672 71.4375L42.8436 71.4376L42.8439 78.5625H35.672V71.4375Z" fill="#F5D2F1"/>
<path d="M28.5461 21.4218L35.672 21.4217L35.6711 28.5937H28.5461V21.4218Z" fill="#F5D2F1"/>
<path d="M21.4233 114.281H28.5483L28.5461 121.453L21.4233 121.453V114.281Z" fill="#F5D2F1"/>
<path d="M21.4233 28.5938L28.5461 28.5937L28.5483 35.7188H21.4233V28.5938Z" fill="#F5D2F1"/>
<path d="M14.2487 107.156H21.4205L21.4233 114.281L14.2487 114.281V107.156Z" fill="#F5D2F1"/>
<path d="M14.2487 35.7189L21.4233 35.7188L21.4205 50.0158H14.2487V35.7189Z" fill="#F5D2F1"/>
<path d="M7.12585 92.8593H14.2509L14.2487 107.156L7.12585 107.156V92.8593Z" fill="#F5D2F1"/>
<path d="M7.12585 50.0156L14.2487 50.0158L14.2509 64.2656H7.12585V50.0156Z" fill="#F5D2F1"/>
<path d="M0 64.2654L7.12585 64.2656V92.8593L0 92.8592V64.2654Z" fill="#F5D2F1"/>
<path d="M78.5625 42.8439V50.0157H64.2656V57.1407H57.1406V71.4376H49.9687V78.5626H42.8438V85.7345H64.2656V78.5626H78.5625V71.4376H85.6875V57.1407H92.8594V35.7189H85.6875V42.8439H78.5625Z" fill="#F1CD78"/>
<path fill-rule="evenodd" clip-rule="evenodd" d="M42.8438 71.4377H49.9688L49.9689 78.5627L42.844 78.5625L42.8438 71.4377Z" fill="#FFE4A4"/>
<path fill-rule="evenodd" clip-rule="evenodd" d="M49.9696 57.1407H57.1415L57.1407 71.4377L49.9688 71.4377L49.9696 57.1407Z" fill="#FFE4A4"/>
<path fill-rule="evenodd" clip-rule="evenodd" d="M57.1412 50.0155H64.2662L64.2657 57.1408L57.1415 57.1407L57.1412 50.0155Z" fill="#FFE4A4"/>
<path fill-rule="evenodd" clip-rule="evenodd" d="M64.2671 42.844H78.564L78.5626 50.0158L64.2662 50.0155L64.2671 42.844Z" fill="#FFE4A4"/>
<path fill-rule="evenodd" clip-rule="evenodd" d="M78.5615 35.7189H85.6865L85.6876 42.8439L78.564 42.844L78.5615 35.7189Z" fill="#FFE4A4"/>
<path d="M114.282 42.8436H121.407V50.0155H114.282V42.8436Z" fill="#F1BE31"/>
<path d="M107.11 50.0156H114.282V57.1406H107.11V50.0156Z" fill="#F1BE31"/>
<path d="M99.9849 71.4375H107.11V78.5625H99.9849V71.4375Z" fill="#96497E"/>
<path d="M99.9849 28.5938H107.11V35.7188H99.9849V28.5938Z" fill="#FD4545"/>
<path d="M85.6875 14.2968H99.9844V21.4218H85.6875V14.2968Z" fill="#FD68CE"/>
<path d="M85.6875 85.7346H92.8594V92.8596H85.6875V85.7346Z" fill="#FD68CE"/>
<path d="M64.2671 92.8593H71.3921V99.9843H64.2671V92.8593Z" fill="#547EFF"/>
<path d="M49.9697 99.9844H64.2666V107.156H49.9697V99.9844Z" fill="#547EFF"/>
<path d="M42.8438 28.5938H57.1406V35.7188H42.8438V28.5938Z" fill="#96497E"/>
<path d="M28.5459 92.8593H35.6709V99.9843H28.5459V92.8593Z" fill="#FD68CE"/>
<path d="M28.5459 42.8436H35.6709V57.1405H28.5459V42.8436Z" fill="#FD68CE"/>
<path d="M14.2485 71.4375H21.4204V85.7344H14.2485V71.4375Z" fill="#F1BE31"/>
</svg>
