<svg width="150" height="121" viewBox="0 0 150 121" fill="none" xmlns="http://www.w3.org/2000/svg">
<path d="M135.034 52.5271H142.517V60.0098H135.034V52.5271Z" fill="#E7EDFF"/>
<path d="M135.034 22.4975H142.517V30.0295H135.034V22.4975Z" fill="#E7EDFF"/>
<path d="M127.502 60.0098H135.034V67.5418H127.502V60.0098Z" fill="#E7EDFF"/>
<path d="M127.502 15.0148H135.034V22.4975H127.502V15.0148Z" fill="#E7EDFF"/>
<path d="M120.02 67.5418H127.502V75.0246H120.02V67.5418Z" fill="#E7EDFF"/>
<path d="M120.02 7.532H127.502V15.0148H120.02V7.532Z" fill="#E7EDFF"/>
<path d="M112.488 75.0246H120.02V82.5074H112.488V75.0246Z" fill="#E7EDFF"/>
<path d="M105.005 82.5074H112.488V90.0394H105.005V82.5074Z" fill="#E7EDFF"/>
<path d="M105.005 52.5271H112.488V60.0098H105.005V52.5271Z" fill="#E7EDFF"/>
<path d="M105.005 22.4975H112.488V30.0295H105.005V22.4975Z" fill="#E7EDFF"/>
<path d="M97.5222 90.0394H105.005V97.5222H97.5222V90.0394Z" fill="#E7EDFF"/>
<path d="M97.5222 60.0098H105.005V75.0246H97.5222V60.0098Z" fill="#E7EDFF"/>
<path d="M97.5222 15.0148H105.005V22.4975H97.5222V15.0148Z" fill="#E7EDFF"/>
<path d="M89.9902 75.0246H97.5222V90.0394H89.9902V75.0246Z" fill="#E7EDFF"/>
<path d="M89.9902 90.0394H82.5074V112.537H89.9902V105.054H97.5222V97.5222H89.9902V90.0394Z" fill="#E7EDFF"/>
<path d="M67.4926 112.537H82.5074V120.02H67.4926V112.537Z" fill="#E7EDFF"/>
<path d="M67.4926 90.0394H60.0098V97.5222H52.4778V105.054H60.0098V112.537H67.4926V90.0394Z" fill="#E7EDFF"/>
<path d="M52.4778 75.0246H60.0098V90.0394H52.4778V75.0246Z" fill="#E7EDFF"/>
<path d="M44.9951 90.0394H52.4778V97.5222H44.9951V90.0394Z" fill="#E7EDFF"/>
<path d="M44.9951 60.0098H52.4778V75.0246H44.9951V60.0098Z" fill="#E7EDFF"/>
<path d="M44.9951 15.0148H52.4778V22.4975H44.9951V15.0148Z" fill="#E7EDFF"/>
<path d="M37.5123 82.5074H44.9951V90.0394H37.5123V82.5074Z" fill="#E7EDFF"/>
<path d="M37.5123 52.5271H44.9951V60.0098H37.5123V52.5271Z" fill="#E7EDFF"/>
<path d="M37.5123 22.4975H44.9951V30.0295H37.5123V22.4975Z" fill="#E7EDFF"/>
<path d="M52.4778 7.532V15.0148H60.0098V7.532H89.9902V15.0148H97.5222V7.532H120.02V0H29.9803V7.532H52.4778Z" fill="#E7EDFF"/>
<path d="M29.9803 75.0246H37.5123V82.5074H29.9803V75.0246Z" fill="#E7EDFF"/>
<path d="M22.4975 67.5418H29.9803V75.0246H22.4975V67.5418Z" fill="#E7EDFF"/>
<path d="M22.4975 7.532H29.9803V15.0148H22.4975V7.532Z" fill="#E7EDFF"/>
<path d="M14.9655 60.0098H22.4975V67.5418H14.9655V60.0098Z" fill="#E7EDFF"/>
<path d="M14.9655 15.0148H22.4975V22.4975H14.9655V15.0148Z" fill="#E7EDFF"/>
<path d="M7.48277 52.5271H14.9655V60.0098H7.48277V52.5271Z" fill="#E7EDFF"/>
<path d="M7.48277 44.9951H29.9803V52.5271H37.5123V44.9951H112.488V52.5271H120.02V44.9951H142.517V52.5271H150V30.0295H142.517V37.5123H120.02V30.0295H112.488V37.5123H37.5123V30.0295H29.9803V37.5123H7.48277V30.0295H0V52.5271H7.48277V44.9951Z" fill="#E7EDFF"/>
<path d="M7.48277 22.4975H14.9655V30.0295H7.48277V22.4975Z" fill="#E7EDFF"/>
<path d="M105.005 52.5271H112.488V44.9951H37.5123V52.5271H44.9951V60.0098H52.4778V75.0246H60.0098V90.0394H67.4926V112.537H82.5074V90.0394H89.9902V75.0246H97.5222V60.0098H105.005V52.5271Z" fill="#E7EDFF"/>
<path d="M112.488 30.0295H105.005V22.4975H97.5222V15.0148H89.9902V7.532H60.0098V15.0148H52.4778V22.4975H44.9951V30.0295H37.5123V37.5123H112.488V30.0295Z" fill="#E7EDFF"/>
<path d="M44.9951 15.0148H52.4778V7.532H29.9803V15.0148H22.4975V22.4975H14.9655V30.0295H7.48277V37.5123H29.9803V30.0295H37.5123V22.4975H44.9951V15.0148Z" fill="#E7EDFF"/>
<path d="M52.4778 90.0394V75.0246H44.9951V60.0098H37.5123V52.5271H29.9803V44.9951H7.48277V52.5271H14.9655V60.0098H22.4975V67.5418H29.9803V75.0246H37.5123V82.5074H44.9951V90.0394H52.4778Z" fill="#E7EDFF"/>
<path d="M135.034 52.5271H142.517V44.9951H120.02V52.5271H112.488V60.0098H105.005V75.0246H97.5222V90.0394H105.005V82.5074H112.488V75.0246H120.02V67.5418H127.502V60.0098H135.034V52.5271Z" fill="#E7EDFF"/>
<path d="M142.517 30.0295H135.034V22.4975H127.502V15.0148H120.02V7.532H97.5222V15.0148H105.005V22.4975H112.488V30.0295H120.02V37.5123H142.517V30.0295Z" fill="#E7EDFF"/>
<path d="M60.0098 97.5222V90.0394H52.4778V97.5222H60.0098Z" fill="#E7EDFF"/>
<path d="M97.5222 97.5222V90.0394H89.9902V97.5222H97.5222Z" fill="#E7EDFF"/>
<path d="M135.034 52.5271H142.517V60.0098H135.034V52.5271Z" fill="#ACC1FF"/>
<path d="M135.034 22.4975H142.517V30.0295H135.034V22.4975Z" fill="#ACC1FF"/>
<path d="M127.502 60.0098H135.034V67.5418H127.502V60.0098Z" fill="#ACC1FF"/>
<path d="M127.502 15.0148H135.034V22.4975H127.502V15.0148Z" fill="#ACC1FF"/>
<path d="M120.02 67.5418H127.502V75.0246H120.02V67.5418Z" fill="#ACC1FF"/>
<path d="M120.02 7.532H127.502V15.0148H120.02V7.532Z" fill="#ACC1FF"/>
<path d="M112.488 75.0246H120.02V82.5074H112.488V75.0246Z" fill="#ACC1FF"/>
<path d="M105.005 82.5074H112.488V90.0394H105.005V82.5074Z" fill="#ACC1FF"/>
<path d="M105.005 52.5271H112.488V60.0098H105.005V52.5271Z" fill="#ACC1FF"/>
<path d="M105.005 22.4975H112.488V30.0295H105.005V22.4975Z" fill="#ACC1FF"/>
<path d="M97.5222 90.0394H105.005V97.5222H97.5222V90.0394Z" fill="#ACC1FF"/>
<path d="M97.5222 60.0098H105.005V75.0246H97.5222V60.0098Z" fill="#ACC1FF"/>
<path d="M97.5222 15.0148H105.005V22.4975H97.5222V15.0148Z" fill="#ACC1FF"/>
<path d="M89.9902 75.0246H97.5222V90.0394H89.9902V75.0246Z" fill="#ACC1FF"/>
<path d="M89.9902 90.0394H82.5074V112.537H89.9902V105.054H97.5222V97.5222H89.9902V90.0394Z" fill="#ACC1FF"/>
<path d="M67.4926 112.537H82.5074V120.02H67.4926V112.537Z" fill="#ACC1FF"/>
<path d="M67.4926 90.0394H60.0098V97.5222H52.4778V105.054H60.0098V112.537H67.4926V90.0394Z" fill="#ACC1FF"/>
<path d="M52.4778 75.0246H60.0098V90.0394H52.4778V75.0246Z" fill="#ACC1FF"/>
<path d="M44.9951 90.0394H52.4778V97.5222H44.9951V90.0394Z" fill="#ACC1FF"/>
<path d="M44.9951 60.0098H52.4778V75.0246H44.9951V60.0098Z" fill="#ACC1FF"/>
<path d="M44.9951 15.0148H52.4778V22.4975H44.9951V15.0148Z" fill="#ACC1FF"/>
<path d="M37.5123 82.5074H44.9951V90.0394H37.5123V82.5074Z" fill="#ACC1FF"/>
<path d="M37.5123 52.5271H44.9951V60.0098H37.5123V52.5271Z" fill="#ACC1FF"/>
<path d="M37.5123 22.4975H44.9951V30.0295H37.5123V22.4975Z" fill="#ACC1FF"/>
<path d="M52.4778 7.532V15.0148H60.0098V7.532H89.9902V15.0148H97.5222V7.532H120.02V0H29.9803V7.532H52.4778Z" fill="#ACC1FF"/>
<path d="M29.9803 75.0246H37.5123V82.5074H29.9803V75.0246Z" fill="#ACC1FF"/>
<path d="M22.4975 67.5418H29.9803V75.0246H22.4975V67.5418Z" fill="#ACC1FF"/>
<path d="M22.4975 7.532H29.9803V15.0148H22.4975V7.532Z" fill="#ACC1FF"/>
<path d="M14.9655 60.0098H22.4975V67.5418H14.9655V60.0098Z" fill="#ACC1FF"/>
<path d="M14.9655 15.0148H22.4975V22.4975H14.9655V15.0148Z" fill="#ACC1FF"/>
<path d="M7.48277 52.5271H14.9655V60.0098H7.48277V52.5271Z" fill="#ACC1FF"/>
<path d="M7.48277 44.9951H29.9803V52.5271H37.5123V44.9951H112.488V52.5271H120.02V44.9951H142.517V52.5271H150V30.0295H142.517V37.5123H120.02V30.0295H112.488V37.5123H37.5123V30.0295H29.9803V37.5123H7.48277V30.0295H0V52.5271H7.48277V44.9951Z" fill="#ACC1FF"/>
<path d="M7.48277 22.4975H14.9655V30.0295H7.48277V22.4975Z" fill="#ACC1FF"/>
</svg>
